<?xml version="1.0" encoding="UTF-8" standalone="no"?>
<svg
   viewBox="0 0 222.00478 302.92963"
   version="1.1"
   id="svg26"
   width="222.00478"
   height="302.92963"
   xmlns="http://www.w3.org/2000/svg"
   xmlns:svg="http://www.w3.org/2000/svg">
  <defs
     id="defs1">
    <style
       id="style1">.a{fill:#00bfff;}</style>
  </defs>
  <path
     class="a"
     d="m 73.819181,136.09203 c 0,0 -6,-34 -7,-41.999995 -1,-8 -10,-48 -11,-55 -1,-7 -4,-17 -13,-18 -9,-1 -13,1 -16,9 -3,8 15,80.999995 18,88.999995 3,8 9,31 11,34 2,3 6,8 13,6 7,-2 8,-8 5,-23 z"
     id="path1" />
  <path
     class="a"
     d="m 97.819181,0.09203473 c 8.999999,-0.9 13.999999,4.99999997 14.999999,8.99999997 1,4.0000003 6,70.0000003 6,88.0000003 0,17.999995 2,43.999995 -1,48.999995 -3,5 -4,6 -10,6 -6,0 -8.999999,-6 -9.999999,-13 -1.17,-8.16 -3,-16 -5,-34 -0.35,-3.14 -8,-82.999995 -8,-89.999995 0,-7.0000003 3,-14.0000003 13,-15.00000027 z"
     id="path2" />
  <path
     class="a"
     d="m 161.81918,18.092035 c 11,-0.73 13,9 13,15 0,4 -4,35 -5,42 -1,7 -7.1,40.779995 -8,47.999995 -1,8 -4.16,23.31 -6,27 -1,2 -4,6 -9,5 -5,-1 -8,-1 -8,-10 0,-9 4,-54.999995 4,-59.999995 0,-5 4,-37 5,-41 1,-4 -1,-25 14,-26 z"
     id="path3" />
  <path
     class="a"
     d="m 211.81918,56.092035 c 8,0.67 11,7 10,11 -1,4 -6,24 -8,31 -2,6.999995 -14,46.999995 -15,48.999995 -1,2 -5,14 -6,16 -0.89,1.79 -5,3 -8,2 -3,-1 -7,-2 -5,-12 2,-10 6,-30 7,-34 1,-4 8,-36.999995 11,-43.999995 3,-7 2,-20 14,-19 z"
     id="path4" />
  <path
     class="a"
     d="m 0.00918081,130.50203 a 2.13,2.13 0 0 1 2.29999999,-2.32 c 9.5000002,0.91 19.0700002,4.16 24.5000002,18.91 7,19 -0.35,75.4 10.5,91.5 16.5,24.5 35.5,38.5 75.499999,38.5 51,0 73.5,-18.5 73.5,-52.5 0,-34 -35,-35 -42,-34 -7,1 -13.65,4 -13,16 0.63,11.62 17.84,9.82 19,3 0.86,-5 -3,-7 1,-9 4,-2 12,2 12,12 0,10 -2,41 -40,42 -37.999999,1 -39.709999,-32 -39.999999,-37 -0.5,-8.5 6,-23 3,-24 -3,-1 -7.42,-2.48 -19,8 q -15.75,14.25 -21,9 c -4,-4 -6,-9 -2,-13 4,-4 27,-29 60.999999,-33 34,-4 71.37,3.62 92,26 23.5,25.5 13.62,89.92 -37,105 -75.499999,22.5 -147.499999,-8.5 -153.9999992,-69 -3.45,-32.2 -2.95,-55.16 -6.29999999,-96.09 z"
     id="path5" />
</svg>
